%FSLAX25Y25*%
%MOIN*%
G70*
G01*
G75*
G04 Layer_Color=65535*
%ADD10R,0.05315X0.04528*%
%ADD11R,0.03150X0.05906*%
%ADD12R,0.03937X0.03937*%
%ADD13R,0.03543X0.03937*%
%ADD14R,0.03150X0.01181*%
%ADD15R,0.07000X0.08500*%
%ADD16R,0.03937X0.03543*%
%ADD17R,0.03740X0.07480*%
%ADD18R,0.26772X0.27165*%
%ADD19R,0.03937X0.03937*%
%ADD20R,0.09449X0.12992*%
%ADD21R,0.09449X0.03937*%
%ADD22O,0.08268X0.02362*%
%ADD23R,0.06693X0.04134*%
%ADD24R,0.02165X0.04134*%
%ADD25R,0.01575X0.04921*%
%ADD26R,0.04528X0.05315*%
%ADD27C,0.01000*%
%ADD28C,0.01200*%
%ADD29C,0.01500*%
%ADD30C,0.03000*%
%ADD31C,0.02500*%
%ADD32C,0.02000*%
%ADD33C,0.07000*%
%ADD34C,0.21000*%
%ADD35C,0.11811*%
%ADD36C,0.15748*%
%ADD37C,0.03000*%
%ADD38C,0.06000*%
D27*
X67500Y-10500D02*
X68833D01*
X68166D01*
Y-6501D01*
X67500Y-7168D01*
X73498Y-10500D02*
X70832D01*
X73498Y-7834D01*
Y-7168D01*
X72832Y-6501D01*
X71499D01*
X70832Y-7168D01*
X74831Y-10500D02*
X77497Y-7834D01*
X78830Y-7168D02*
X79496Y-6501D01*
X80829D01*
X81495Y-7168D01*
Y-9833D01*
X80829Y-10500D01*
X79496D01*
X78830Y-9833D01*
Y-7168D01*
X82828D02*
X83495Y-6501D01*
X84828D01*
X85494Y-7168D01*
Y-7834D01*
X84828Y-8501D01*
X85494Y-9167D01*
Y-9833D01*
X84828Y-10500D01*
X83495D01*
X82828Y-9833D01*
Y-9167D01*
X83495Y-8501D01*
X82828Y-7834D01*
Y-7168D01*
X83495Y-8501D02*
X84828D01*
X86827Y-10500D02*
X89493Y-7834D01*
X93492Y-10500D02*
X90826D01*
X93492Y-7834D01*
Y-7168D01*
X92825Y-6501D01*
X91492D01*
X90826Y-7168D01*
X94824D02*
X95491Y-6501D01*
X96824D01*
X97490Y-7168D01*
Y-9833D01*
X96824Y-10500D01*
X95491D01*
X94824Y-9833D01*
Y-7168D01*
X98823Y-10500D02*
X100156D01*
X99490D01*
Y-6501D01*
X98823Y-7168D01*
X102155D02*
X102822Y-6501D01*
X104155D01*
X104821Y-7168D01*
Y-7834D01*
X104155Y-8501D01*
X103488D01*
X104155D01*
X104821Y-9167D01*
Y-9833D01*
X104155Y-10500D01*
X102822D01*
X102155Y-9833D01*
X68000Y107500D02*
Y111499D01*
X69999D01*
X70666Y110832D01*
Y109499D01*
X69999Y108833D01*
X68000D01*
X69333D02*
X70666Y107500D01*
X71999D02*
Y108167D01*
X72665D01*
Y107500D01*
X71999D01*
X79330Y111499D02*
Y108167D01*
X79996Y107500D01*
X81329D01*
X81995Y108167D01*
Y111499D01*
X85994Y110832D02*
X85328Y111499D01*
X83995D01*
X83328Y110832D01*
Y110166D01*
X83995Y109499D01*
X85328D01*
X85994Y108833D01*
Y108167D01*
X85328Y107500D01*
X83995D01*
X83328Y108167D01*
X89993Y110832D02*
X89326Y111499D01*
X87994D01*
X87327Y110832D01*
Y110166D01*
X87994Y109499D01*
X89326D01*
X89993Y108833D01*
Y108167D01*
X89326Y107500D01*
X87994D01*
X87327Y108167D01*
X93992Y111499D02*
X91326D01*
Y107500D01*
X93992D01*
X91326Y109499D02*
X92659D01*
X95324Y107500D02*
Y111499D01*
X97324D01*
X97990Y110832D01*
Y109499D01*
X97324Y108833D01*
X95324D01*
X96657D02*
X97990Y107500D01*
X99323Y111499D02*
Y110832D01*
X100656Y109499D01*
X101989Y110832D01*
Y111499D01*
X100656Y109499D02*
Y107500D01*
M02*
