%FSLAX25Y25*%
%MOIN*%
G70*
G01*
G75*
G04 Layer_Physical_Order=2*
G04 Layer_Color=16711680*
%ADD10R,0.05315X0.04528*%
%ADD11R,0.03150X0.05906*%
%ADD12R,0.03937X0.03937*%
%ADD13R,0.03543X0.03937*%
%ADD14R,0.03150X0.01181*%
%ADD15R,0.07000X0.08500*%
%ADD16R,0.03937X0.03543*%
%ADD17R,0.03740X0.07480*%
%ADD18R,0.26772X0.27165*%
%ADD19R,0.03937X0.03937*%
%ADD20R,0.09449X0.12992*%
%ADD21R,0.09449X0.03937*%
%ADD22O,0.08268X0.02362*%
%ADD23R,0.06693X0.04134*%
%ADD24R,0.02165X0.04134*%
%ADD25R,0.01575X0.04921*%
%ADD26R,0.04528X0.05315*%
%ADD27C,0.01000*%
%ADD28C,0.01200*%
%ADD29C,0.01500*%
%ADD30C,0.03000*%
%ADD31C,0.02500*%
%ADD32C,0.02000*%
%ADD33C,0.07000*%
%ADD34C,0.21000*%
%ADD35C,0.11811*%
%ADD36C,0.15748*%
%ADD37C,0.03000*%
%ADD38C,0.06000*%
G36*
X35954Y83650D02*
X35869Y83000D01*
Y77500D01*
X35993Y76560D01*
X36355Y75684D01*
X36933Y74932D01*
X42717Y69148D01*
X42596Y68663D01*
X42390Y68600D01*
X42114Y69014D01*
X41419Y69478D01*
X40600Y69641D01*
X39781Y69478D01*
X39086Y69014D01*
X38892Y68723D01*
X36707D01*
X36365Y69065D01*
X35968Y69330D01*
X35500Y69424D01*
X31700D01*
X31232Y69330D01*
X30835Y69065D01*
X30150Y68381D01*
X29702Y68602D01*
X29781Y69200D01*
Y78146D01*
X35506Y83871D01*
X35954Y83650D01*
D02*
G37*
G36*
X102250Y112090D02*
X104461Y111650D01*
X106596Y110925D01*
X108618Y109928D01*
X110493Y108675D01*
X112188Y107188D01*
X113675Y105493D01*
X114928Y103619D01*
X115925Y101596D01*
X116650Y99461D01*
X117089Y97250D01*
X117233Y95054D01*
X117226Y95000D01*
X117226Y95000D01*
Y5000D01*
X117233Y4946D01*
X117089Y2750D01*
X116650Y539D01*
X115925Y-1596D01*
X114928Y-3618D01*
X113675Y-5493D01*
X112188Y-7188D01*
X110493Y-8675D01*
X108618Y-9928D01*
X106596Y-10925D01*
X104461Y-11650D01*
X102250Y-12089D01*
X100054Y-12233D01*
X100000Y-12226D01*
X100000Y-12226D01*
X5000D01*
X5000Y-12226D01*
X4946Y-12233D01*
X2750Y-12089D01*
X539Y-11650D01*
X380Y-11596D01*
X442Y-11100D01*
X1742Y-10997D01*
X3441Y-10589D01*
X5055Y-9921D01*
X6545Y-9008D01*
X7873Y-7873D01*
X9008Y-6545D01*
X9921Y-5055D01*
X10589Y-3441D01*
X10997Y-1742D01*
X11134Y0D01*
X10997Y1742D01*
X10589Y3441D01*
X9921Y5055D01*
X9008Y6545D01*
X7873Y7873D01*
X6545Y9008D01*
X5055Y9921D01*
X3441Y10589D01*
X1742Y10997D01*
X0Y11134D01*
X-1742Y10997D01*
X-3441Y10589D01*
X-5055Y9921D01*
X-6545Y9008D01*
X-7873Y7873D01*
X-9008Y6545D01*
X-9921Y5055D01*
X-10589Y3441D01*
X-10997Y1742D01*
X-11100Y442D01*
X-11596Y380D01*
X-11650Y539D01*
X-12089Y2750D01*
X-12233Y4946D01*
X-12226Y5000D01*
Y95000D01*
X-12226Y95000D01*
X-12233Y95054D01*
X-12089Y97250D01*
X-11650Y99461D01*
X-11596Y99620D01*
X-11100Y99558D01*
X-10997Y98258D01*
X-10589Y96559D01*
X-9921Y94945D01*
X-9008Y93455D01*
X-7873Y92127D01*
X-6545Y90992D01*
X-5055Y90079D01*
X-3441Y89411D01*
X-1742Y89003D01*
X0Y88866D01*
X1742Y89003D01*
X3441Y89411D01*
X5055Y90079D01*
X6545Y90992D01*
X7873Y92127D01*
X9008Y93455D01*
X9921Y94945D01*
X10589Y96559D01*
X10997Y98258D01*
X11134Y100000D01*
X10997Y101742D01*
X10589Y103441D01*
X9921Y105055D01*
X9008Y106545D01*
X7873Y107873D01*
X6545Y109008D01*
X5055Y109921D01*
X3441Y110589D01*
X1742Y110997D01*
X442Y111100D01*
X380Y111596D01*
X539Y111650D01*
X2750Y112090D01*
X4946Y112233D01*
X5000Y112226D01*
X49513D01*
X49674Y111753D01*
X49433Y111568D01*
X48855Y110816D01*
X48493Y109940D01*
X48369Y109000D01*
Y107004D01*
X23582Y82217D01*
X23005Y81465D01*
X22642Y80589D01*
X22519Y79650D01*
Y69200D01*
X22642Y68260D01*
X23005Y67384D01*
X23552Y66672D01*
X23331Y66224D01*
X18007D01*
X17223Y67007D01*
Y75260D01*
X17610Y75577D01*
X17700Y75559D01*
X18519Y75722D01*
X19214Y76186D01*
X19678Y76881D01*
X19841Y77700D01*
X19678Y78519D01*
X19214Y79214D01*
X18519Y79678D01*
X17700Y79841D01*
X16881Y79678D01*
X16186Y79214D01*
X15722Y78519D01*
X15559Y77700D01*
X15627Y77357D01*
X15135Y76865D01*
X14870Y76468D01*
X14776Y76000D01*
Y66500D01*
X14776Y66500D01*
X14776D01*
X14870Y66032D01*
X15135Y65635D01*
X16635Y64135D01*
X17032Y63870D01*
X17500Y63776D01*
X24037D01*
X24228Y63314D01*
X11535Y50622D01*
X-2644D01*
X-2665Y50636D01*
X-3095Y50722D01*
X-3095Y50722D01*
X-6905D01*
X-6905Y50722D01*
X-7097Y50683D01*
X-8678Y52265D01*
Y62281D01*
X-8205Y62442D01*
X-7924Y62076D01*
X-7068Y61419D01*
X-6070Y61006D01*
X-5000Y60865D01*
X-3930Y61006D01*
X-2932Y61419D01*
X-2076Y62076D01*
X-1419Y62932D01*
X-1005Y63930D01*
X-865Y65000D01*
X-1005Y66070D01*
X-1419Y67068D01*
X-2076Y67924D01*
X-2932Y68581D01*
X-3930Y68994D01*
X-5000Y69135D01*
X-6070Y68994D01*
X-7068Y68581D01*
X-7924Y67924D01*
X-8205Y67558D01*
X-8678Y67719D01*
Y71235D01*
X-7875Y72039D01*
X-7068Y71419D01*
X-6070Y71005D01*
X-5000Y70865D01*
X-3930Y71005D01*
X-2932Y71419D01*
X-2076Y72076D01*
X-1419Y72932D01*
X-1005Y73930D01*
X-865Y75000D01*
X-1005Y76070D01*
X-1419Y77068D01*
X-2076Y77924D01*
X-2932Y78581D01*
X-3930Y78995D01*
X-5000Y79135D01*
X-6070Y78995D01*
X-7068Y78581D01*
X-7924Y77924D01*
X-8581Y77068D01*
X-8995Y76070D01*
X-9135Y75000D01*
X-9013Y74073D01*
X-10593Y72493D01*
X-10836Y72129D01*
X-10922Y71700D01*
X-10922Y71700D01*
Y51800D01*
X-10922Y51800D01*
X-10836Y51371D01*
X-10593Y51007D01*
X-8293Y48707D01*
X-8293Y48707D01*
X-7929Y48464D01*
X-7929Y48464D01*
D01*
D01*
Y48464D01*
X-7929Y48464D01*
X-7478Y48267D01*
X-7924Y47924D01*
X-8581Y47068D01*
X-8995Y46070D01*
X-9135Y45000D01*
X-8995Y43930D01*
X-8581Y42932D01*
X-7924Y42076D01*
X-7068Y41419D01*
X-6070Y41006D01*
X-5000Y40865D01*
X-3930Y41006D01*
X-2932Y41419D01*
X-2076Y42076D01*
X-1419Y42932D01*
X-1005Y43930D01*
X-865Y45000D01*
X-1005Y46070D01*
X-1419Y47068D01*
X-2076Y47924D01*
X-1922Y48378D01*
X12000D01*
X12000Y48378D01*
X12429Y48464D01*
X12793Y48707D01*
X25765Y61678D01*
X28724D01*
X28986Y61286D01*
X29681Y60822D01*
X30500Y60659D01*
X31319Y60822D01*
X32014Y61286D01*
X32478Y61981D01*
X32641Y62800D01*
X32478Y63619D01*
X32014Y64314D01*
X31319Y64778D01*
X30746Y64892D01*
X30601Y65371D01*
X32207Y66976D01*
X34993D01*
X35335Y66635D01*
X35732Y66370D01*
X36200Y66277D01*
X38892D01*
X39086Y65986D01*
X39781Y65522D01*
X40600Y65359D01*
X41419Y65522D01*
X42114Y65986D01*
X42390Y66400D01*
X42869Y66255D01*
Y60660D01*
X42769Y59900D01*
Y47441D01*
X30100D01*
X29281Y47278D01*
X28586Y46814D01*
X23486Y41714D01*
X23022Y41019D01*
X22859Y40200D01*
Y11500D01*
X22859Y11500D01*
X22859D01*
X23022Y10681D01*
X23486Y9986D01*
X24181Y9522D01*
X25000Y9359D01*
X25819Y9522D01*
X26514Y9986D01*
X26978Y10681D01*
X27141Y11500D01*
Y39313D01*
X29506Y41678D01*
X29947Y41442D01*
X29859Y41000D01*
X30022Y40181D01*
X30486Y39486D01*
X31181Y39022D01*
X32000Y38859D01*
X32819Y39022D01*
X33514Y39486D01*
X33843Y39978D01*
X40735D01*
X41507Y39207D01*
X41507Y39207D01*
X41871Y38964D01*
X41871Y38964D01*
X41871Y38964D01*
D01*
X41871Y38964D01*
X41871Y38964D01*
X42300Y38878D01*
X50000D01*
X50000Y38878D01*
X50429Y38964D01*
X50793Y39207D01*
X53293Y41707D01*
X53293Y41707D01*
X53536Y42071D01*
X53622Y42500D01*
Y52024D01*
X54014Y52286D01*
X54478Y52981D01*
X54641Y53800D01*
X54478Y54619D01*
X54014Y55314D01*
X53319Y55778D01*
X52500Y55941D01*
X51681Y55778D01*
X50986Y55314D01*
X50522Y54619D01*
X50031Y54717D01*
Y59240D01*
X50131Y60000D01*
X50131Y60000D01*
X50131Y60000D01*
Y60000D01*
Y70500D01*
X50007Y71440D01*
X49645Y72316D01*
X49068Y73068D01*
X49068Y73068D01*
X43131Y79004D01*
Y81496D01*
X47004Y85369D01*
X67496D01*
X69432Y83432D01*
X70184Y82855D01*
X71060Y82493D01*
X72000Y82369D01*
X72940Y82493D01*
X73816Y82855D01*
X74568Y83432D01*
X75145Y84184D01*
X75507Y85060D01*
X75631Y86000D01*
X75507Y86940D01*
X75145Y87815D01*
X74568Y88568D01*
X71568Y91568D01*
X70815Y92145D01*
X69940Y92507D01*
X69000Y92631D01*
X45500D01*
X44850Y92545D01*
X44629Y92994D01*
X54567Y102932D01*
X54568Y102932D01*
X55145Y103684D01*
X55295Y104047D01*
X55507Y104560D01*
X55631Y105500D01*
X55631Y105500D01*
Y109000D01*
X55507Y109940D01*
X55145Y110816D01*
X54568Y111568D01*
X54326Y111753D01*
X54487Y112226D01*
X100000D01*
X100054Y112233D01*
X102250Y112090D01*
D02*
G37*
%LPC*%
G36*
X67347Y49269D02*
X66071Y49144D01*
X64845Y48772D01*
X63715Y48168D01*
X62724Y47355D01*
X61911Y46364D01*
X61307Y45234D01*
X60935Y44008D01*
X60809Y42732D01*
X60935Y41457D01*
X61307Y40231D01*
X61911Y39101D01*
X62724Y38110D01*
X63715Y37297D01*
X64845Y36693D01*
X66071Y36321D01*
X67347Y36195D01*
X68622Y36321D01*
X69848Y36693D01*
X70978Y37297D01*
X71969Y38110D01*
X72782Y39101D01*
X73386Y40231D01*
X73758Y41457D01*
X73883Y42732D01*
X73758Y44008D01*
X73386Y45234D01*
X72782Y46364D01*
X71969Y47355D01*
X70978Y48168D01*
X69848Y48772D01*
X68622Y49144D01*
X67347Y49269D01*
D02*
G37*
G36*
X89000D02*
X87725Y49144D01*
X86498Y48772D01*
X85368Y48168D01*
X84378Y47355D01*
X83565Y46364D01*
X82961Y45234D01*
X82589Y44008D01*
X82463Y42732D01*
X82589Y41457D01*
X82961Y40231D01*
X83565Y39101D01*
X84378Y38110D01*
X85368Y37297D01*
X86498Y36693D01*
X87725Y36321D01*
X89000Y36195D01*
X90275Y36321D01*
X91502Y36693D01*
X92632Y37297D01*
X93622Y38110D01*
X94435Y39101D01*
X95039Y40231D01*
X95411Y41457D01*
X95537Y42732D01*
X95411Y44008D01*
X95039Y45234D01*
X94435Y46364D01*
X93622Y47355D01*
X92632Y48168D01*
X91502Y48772D01*
X90275Y49144D01*
X89000Y49269D01*
D02*
G37*
G36*
Y32734D02*
X87725Y32608D01*
X86498Y32236D01*
X85368Y31632D01*
X84378Y30819D01*
X83565Y29829D01*
X82961Y28699D01*
X82589Y27472D01*
X82463Y26197D01*
X82589Y24922D01*
X82961Y23695D01*
X83565Y22565D01*
X84378Y21575D01*
X85368Y20762D01*
X86498Y20157D01*
X87725Y19785D01*
X89000Y19660D01*
X90275Y19785D01*
X91502Y20157D01*
X92632Y20762D01*
X93622Y21575D01*
X94435Y22565D01*
X95039Y23695D01*
X95411Y24922D01*
X95537Y26197D01*
X95411Y27472D01*
X95039Y28699D01*
X94435Y29829D01*
X93622Y30819D01*
X92632Y31632D01*
X91502Y32236D01*
X90275Y32608D01*
X89000Y32734D01*
D02*
G37*
G36*
X105535Y16995D02*
X103874Y16832D01*
X102277Y16347D01*
X100805Y15560D01*
X99514Y14501D01*
X98456Y13211D01*
X97669Y11739D01*
X97184Y10142D01*
X97020Y8480D01*
X97184Y6819D01*
X97669Y5222D01*
X98456Y3750D01*
X99514Y2459D01*
X100805Y1400D01*
X102277Y613D01*
X103874Y129D01*
X105535Y-35D01*
X107197Y129D01*
X108794Y613D01*
X110266Y1400D01*
X111556Y2459D01*
X112615Y3750D01*
X113402Y5222D01*
X113887Y6819D01*
X114050Y8480D01*
X113887Y10142D01*
X113402Y11739D01*
X112615Y13211D01*
X111556Y14501D01*
X110266Y15560D01*
X108794Y16347D01*
X107197Y16832D01*
X105535Y16995D01*
D02*
G37*
G36*
X67347Y32734D02*
X66071Y32608D01*
X64845Y32236D01*
X63715Y31632D01*
X62724Y30819D01*
X61911Y29829D01*
X61307Y28699D01*
X60935Y27472D01*
X60809Y26197D01*
X60935Y24922D01*
X61307Y23695D01*
X61911Y22565D01*
X62724Y21575D01*
X63715Y20762D01*
X64845Y20157D01*
X66071Y19785D01*
X67347Y19660D01*
X68622Y19785D01*
X69848Y20157D01*
X70978Y20762D01*
X71969Y21575D01*
X72782Y22565D01*
X73386Y23695D01*
X73758Y24922D01*
X73883Y26197D01*
X73758Y27472D01*
X73386Y28699D01*
X72782Y29829D01*
X71969Y30819D01*
X70978Y31632D01*
X69848Y32236D01*
X68622Y32608D01*
X67347Y32734D01*
D02*
G37*
G36*
X89000Y82340D02*
X87725Y82214D01*
X86498Y81842D01*
X85368Y81239D01*
X84378Y80426D01*
X83565Y79435D01*
X82961Y78305D01*
X82589Y77078D01*
X82463Y75803D01*
X82589Y74528D01*
X82961Y73302D01*
X83565Y72171D01*
X84378Y71181D01*
X85368Y70368D01*
X86498Y69764D01*
X87725Y69392D01*
X89000Y69266D01*
X90275Y69392D01*
X91502Y69764D01*
X92632Y70368D01*
X93622Y71181D01*
X94435Y72171D01*
X95039Y73302D01*
X95411Y74528D01*
X95537Y75803D01*
X95411Y77078D01*
X95039Y78305D01*
X94435Y79435D01*
X93622Y80426D01*
X92632Y81239D01*
X91502Y81842D01*
X90275Y82214D01*
X89000Y82340D01*
D02*
G37*
G36*
X-5000Y89135D02*
X-6070Y88994D01*
X-7068Y88581D01*
X-7924Y87924D01*
X-8581Y87068D01*
X-8995Y86070D01*
X-9135Y85000D01*
X-8995Y83930D01*
X-8581Y82932D01*
X-7924Y82076D01*
X-7068Y81419D01*
X-6070Y81006D01*
X-5000Y80865D01*
X-3930Y81006D01*
X-2932Y81419D01*
X-2076Y82076D01*
X-1419Y82932D01*
X-1005Y83930D01*
X-865Y85000D01*
X-1005Y86070D01*
X-1419Y87068D01*
X-2076Y87924D01*
X-2932Y88581D01*
X-3930Y88994D01*
X-5000Y89135D01*
D02*
G37*
G36*
X47000Y82541D02*
X46181Y82378D01*
X45486Y81914D01*
X45022Y81219D01*
X44859Y80400D01*
X45022Y79581D01*
X45486Y78886D01*
X46181Y78422D01*
X47000Y78259D01*
X47546Y78368D01*
X50904Y75010D01*
X50904Y75010D01*
X51268Y74767D01*
X51697Y74682D01*
X51697Y74682D01*
X60920D01*
X60935Y74528D01*
X61307Y73302D01*
X61911Y72171D01*
X62724Y71181D01*
X63715Y70368D01*
X64845Y69764D01*
X66071Y69392D01*
X67347Y69266D01*
X68622Y69392D01*
X69848Y69764D01*
X70978Y70368D01*
X71969Y71181D01*
X72782Y72171D01*
X73386Y73302D01*
X73758Y74528D01*
X73883Y75803D01*
X73758Y77078D01*
X73386Y78305D01*
X72782Y79435D01*
X71969Y80426D01*
X70978Y81239D01*
X69848Y81842D01*
X68622Y82214D01*
X67347Y82340D01*
X66071Y82214D01*
X64845Y81842D01*
X63715Y81239D01*
X62724Y80426D01*
X61911Y79435D01*
X61307Y78305D01*
X60935Y77078D01*
X60920Y76925D01*
X52161D01*
X49066Y80020D01*
X49141Y80400D01*
X48978Y81219D01*
X48514Y81914D01*
X47819Y82378D01*
X47000Y82541D01*
D02*
G37*
G36*
X67347Y65805D02*
X66071Y65679D01*
X64845Y65307D01*
X63715Y64703D01*
X62724Y63890D01*
X61911Y62900D01*
X61307Y61769D01*
X60935Y60543D01*
X60809Y59268D01*
X60935Y57992D01*
X61307Y56766D01*
X61911Y55636D01*
X62724Y54645D01*
X63715Y53832D01*
X64845Y53228D01*
X66071Y52856D01*
X67347Y52731D01*
X68622Y52856D01*
X69848Y53228D01*
X70978Y53832D01*
X71969Y54645D01*
X72782Y55636D01*
X73386Y56766D01*
X73758Y57992D01*
X73883Y59268D01*
X73758Y60543D01*
X73386Y61769D01*
X72782Y62900D01*
X71969Y63890D01*
X70978Y64703D01*
X69848Y65307D01*
X68622Y65679D01*
X67347Y65805D01*
D02*
G37*
G36*
X105535Y102035D02*
X103874Y101871D01*
X102277Y101386D01*
X100805Y100600D01*
X99514Y99541D01*
X98456Y98250D01*
X97669Y96778D01*
X97184Y95181D01*
X97020Y93520D01*
X97184Y91859D01*
X97669Y90261D01*
X98456Y88789D01*
X99514Y87499D01*
X100805Y86440D01*
X102277Y85653D01*
X103874Y85168D01*
X105535Y85005D01*
X107197Y85168D01*
X108794Y85653D01*
X110266Y86440D01*
X111556Y87499D01*
X112615Y88789D01*
X113402Y90261D01*
X113887Y91859D01*
X114050Y93520D01*
X113887Y95181D01*
X113402Y96778D01*
X112615Y98250D01*
X111556Y99541D01*
X110266Y100600D01*
X108794Y101386D01*
X107197Y101871D01*
X105535Y102035D01*
D02*
G37*
%LPD*%
D27*
X-9800Y71700D02*
X-6500Y75000D01*
X-9800Y51800D02*
Y71700D01*
Y51800D02*
X-7500Y49500D01*
X42300Y40000D02*
X50000D01*
X41200Y41100D02*
X42300Y40000D01*
X32600Y41100D02*
X41200D01*
X32000Y40500D02*
X32600Y41100D01*
X47000Y80500D02*
X51697Y75803D01*
X47000Y80400D02*
Y80500D01*
X25300Y62800D02*
X30500D01*
X12000Y49500D02*
X25300Y62800D01*
X30500Y62580D02*
Y62800D01*
X52500Y42500D02*
Y53800D01*
X50000Y40000D02*
X52500Y42500D01*
X51697Y75803D02*
X67347D01*
X-2995Y49500D02*
X12000D01*
X-3095Y49600D02*
X-2995Y49500D01*
X-6905Y49600D02*
X-3095D01*
X-7005Y49500D02*
X-6905Y49600D01*
X-7500Y49500D02*
X-7005D01*
X-6500Y75000D02*
X-5000D01*
D28*
X36200Y67500D02*
X40600D01*
X35500Y68200D02*
X36200Y67500D01*
X31700Y68200D02*
X35500D01*
X28500Y65000D02*
X31700Y68200D01*
X16000Y76000D02*
X17700Y77700D01*
X17500Y65000D02*
X28500D01*
X16000Y66500D02*
Y76000D01*
Y66500D02*
X17500Y65000D01*
D30*
X44600Y45300D02*
X46200Y43700D01*
X30100Y45300D02*
X44600D01*
X25000Y40200D02*
X30100Y45300D01*
X25000Y11500D02*
Y40200D01*
D33*
X-5000Y45000D02*
D03*
Y85000D02*
D03*
Y65000D02*
D03*
Y75000D02*
D03*
Y55000D02*
D03*
D34*
X0Y0D02*
D03*
Y100000D02*
D03*
D35*
X67347Y75803D02*
D03*
Y59268D02*
D03*
Y42732D02*
D03*
X89000Y26197D02*
D03*
Y59268D02*
D03*
Y75803D02*
D03*
Y42732D02*
D03*
X67347Y26197D02*
D03*
D36*
X105535Y93520D02*
D03*
Y8480D02*
D03*
D37*
X40600Y67500D02*
D03*
X47000Y80400D02*
D03*
X17700Y77700D02*
D03*
X30500Y62800D02*
D03*
X33500Y65000D02*
D03*
X52500Y53800D02*
D03*
X46200Y43700D02*
D03*
X32000Y41000D02*
D03*
X90000Y94000D02*
D03*
Y108000D02*
D03*
X27500Y98500D02*
D03*
Y108000D02*
D03*
X34000Y49500D02*
D03*
X25000Y11500D02*
D03*
X72000Y86000D02*
D03*
X52000Y105500D02*
D03*
Y109000D02*
D03*
X26150Y68500D02*
D03*
X19000D02*
D03*
D38*
X46400Y44200D02*
Y59900D01*
X46500Y60000D01*
Y70500D01*
X39500Y77500D02*
X46500Y70500D01*
X39500Y77500D02*
Y83000D01*
X45500Y89000D01*
X69000D01*
X72000Y86000D01*
X26150Y69200D02*
Y79650D01*
X52000Y105500D01*
Y109000D01*
M02*
