%FSLAX25Y25*%
%MOIN*%
G70*
G01*
G75*
G04 Layer_Color=8388736*
%ADD10R,0.05315X0.04528*%
%ADD11R,0.03150X0.05906*%
%ADD12R,0.03937X0.03937*%
%ADD13R,0.03543X0.03937*%
%ADD14R,0.03150X0.01181*%
%ADD15R,0.07000X0.08500*%
%ADD16R,0.03937X0.03543*%
%ADD17R,0.03740X0.07480*%
%ADD18R,0.26772X0.27165*%
%ADD19R,0.03937X0.03937*%
%ADD20R,0.09449X0.12992*%
%ADD21R,0.09449X0.03937*%
%ADD22O,0.08268X0.02362*%
%ADD23R,0.06693X0.04134*%
%ADD24R,0.02165X0.04134*%
%ADD25R,0.01575X0.04921*%
%ADD26R,0.04528X0.05315*%
%ADD27C,0.01000*%
%ADD28C,0.01200*%
%ADD29C,0.01500*%
%ADD30C,0.03000*%
%ADD31C,0.02500*%
%ADD32C,0.02000*%
%ADD33C,0.07000*%
%ADD34C,0.21000*%
%ADD35C,0.11811*%
%ADD36C,0.15748*%
%ADD37C,0.03000*%
%ADD38C,0.06000*%
%ADD39R,0.06115X0.05328*%
%ADD40R,0.03950X0.06706*%
%ADD41R,0.04537X0.04537*%
%ADD42R,0.04343X0.04737*%
%ADD43R,0.03950X0.01981*%
%ADD44R,0.07800X0.09300*%
%ADD45R,0.04737X0.04343*%
%ADD46R,0.04540X0.08280*%
%ADD47R,0.27572X0.27965*%
%ADD48R,0.04537X0.04537*%
%ADD49R,0.10249X0.13792*%
%ADD50R,0.10249X0.04737*%
%ADD51O,0.09068X0.03162*%
%ADD52R,0.07493X0.04934*%
%ADD53R,0.02965X0.04934*%
%ADD54R,0.02375X0.05721*%
%ADD55R,0.05328X0.06115*%
%ADD56C,0.07600*%
%ADD57C,0.21800*%
%ADD58C,0.12611*%
%ADD59C,0.16548*%
D39*
X36129Y99142D02*
D03*
Y91858D02*
D03*
X43613Y99142D02*
D03*
Y91858D02*
D03*
D40*
X25000Y42295D02*
D03*
X15000D02*
D03*
X25000Y16705D02*
D03*
X15000D02*
D03*
D41*
X51350Y63000D02*
D03*
X57650D02*
D03*
X43150Y59500D02*
D03*
X36850D02*
D03*
X19850Y64500D02*
D03*
X26150D02*
D03*
D42*
X51154Y69000D02*
D03*
X57846D02*
D03*
X57846Y57600D02*
D03*
X51153D02*
D03*
X51154Y49700D02*
D03*
X57846D02*
D03*
X48846Y-6500D02*
D03*
X42153D02*
D03*
X43346Y65000D02*
D03*
X36654D02*
D03*
X36654Y53500D02*
D03*
X43347D02*
D03*
X51154Y44000D02*
D03*
X57846D02*
D03*
X51154Y82000D02*
D03*
X57846D02*
D03*
X51154Y76000D02*
D03*
X57846D02*
D03*
X6154Y64500D02*
D03*
X12846D02*
D03*
D43*
X43839Y45000D02*
D03*
Y47559D02*
D03*
Y42441D02*
D03*
X36161D02*
D03*
Y47559D02*
D03*
Y45000D02*
D03*
D44*
X68000Y5500D02*
D03*
X84000D02*
D03*
D45*
X7000Y41846D02*
D03*
Y35153D02*
D03*
D46*
X36524Y374D02*
D03*
X54476D02*
D03*
D47*
X45500Y24783D02*
D03*
D48*
X50257Y92350D02*
D03*
Y98650D02*
D03*
D49*
X81417Y99000D02*
D03*
D50*
X58583D02*
D03*
Y108055D02*
D03*
Y89945D02*
D03*
D51*
X11453Y71000D02*
D03*
Y81000D02*
D03*
Y76000D02*
D03*
Y86000D02*
D03*
X30547Y71000D02*
D03*
Y76000D02*
D03*
Y81000D02*
D03*
Y86000D02*
D03*
D52*
X6185Y51251D02*
D03*
X16815Y51252D02*
D03*
X6185Y57748D02*
D03*
X16815D02*
D03*
D53*
X23760Y58535D02*
D03*
X31240D02*
D03*
X27500Y50465D02*
D03*
X23760D02*
D03*
X31240D02*
D03*
D54*
X41500Y77945D02*
D03*
X44059Y71055D02*
D03*
X38941D02*
D03*
D55*
X40358Y107000D02*
D03*
X47642D02*
D03*
D56*
X-5000Y45000D02*
D03*
Y85000D02*
D03*
Y65000D02*
D03*
Y75000D02*
D03*
Y55000D02*
D03*
D57*
X0Y0D02*
D03*
Y100000D02*
D03*
D58*
X67347Y75803D02*
D03*
Y59268D02*
D03*
Y42732D02*
D03*
X89000Y26197D02*
D03*
Y59268D02*
D03*
Y75803D02*
D03*
Y42732D02*
D03*
X67347Y26197D02*
D03*
D59*
X105535Y93520D02*
D03*
Y8480D02*
D03*
M02*
