M48
;Layer_Color=9474304
;FILE_FORMAT=2:4
INCH
;TYPE=PLATED
T1F00S00C0.0130
T2F00S00C0.0350
T3F00S00C0.0709
T4F00S00C0.1160
T5F00S00C0.1260
%
T01
X002500Y001150
X003200Y004100
X003400Y004950
X004620Y004370
X005250Y005380
X004060Y006750
X003350Y006500
X003050Y006280
X002615Y006850
X001900
X001770Y007770
X002750Y009850
Y010800
X005200Y010900
Y010550
X004700Y008040
X007200Y008600
X009000Y009400
Y010800
T02
X-000500Y004500
Y005500
Y006500
Y007500
Y008500
T03
X006735Y002620
Y004273
X008900
Y002620
Y005927
Y007580
X006735
Y005927
T04
X000000Y000000
Y010000
T05
X010554Y000848
Y009352
M30
